<svg xmlns="http://www.w3.org/2000/svg" width="1800" height="640" viewBox="0 0 1800 640" role="img" aria-labelledby="title desc">
  <title id="title">Sense MCP header artwork</title>
  <desc id="desc">Abstract privacy-first local context field around a developer workstation.</desc>
  <defs>
    <radialGradient id="bgGlow" cx="42%" cy="44%" r="68%">
      <stop offset="0%" stop-color="#1f3a3c"/>
      <stop offset="36%" stop-color="#101827"/>
      <stop offset="72%" stop-color="#070a12"/>
      <stop offset="100%" stop-color="#03050b"/>
    </radialGradient>
    <radialGradient id="deskGlow" cx="45%" cy="42%" r="64%">
      <stop offset="0%" stop-color="#1ce2c4" stop-opacity="0.28"/>
      <stop offset="50%" stop-color="#8dd7ff" stop-opacity="0.08"/>
      <stop offset="100%" stop-color="#111827" stop-opacity="0"/>
    </radialGradient>
    <linearGradient id="screen" x1="0" y1="0" x2="1" y2="1">
      <stop offset="0%" stop-color="#f5f7fb"/>
      <stop offset="18%" stop-color="#dfe9f2"/>
      <stop offset="100%" stop-color="#7a889b"/>
    </linearGradient>
    <linearGradient id="glass" x1="0" y1="0" x2="1" y2="1">
      <stop offset="0%" stop-color="#f4fbff" stop-opacity="0.46"/>
      <stop offset="38%" stop-color="#7dd3fc" stop-opacity="0.14"/>
      <stop offset="100%" stop-color="#22c55e" stop-opacity="0.08"/>
    </linearGradient>
    <linearGradient id="edge" x1="0" y1="0" x2="1" y2="0">
      <stop offset="0%" stop-color="#34d399" stop-opacity="0"/>
      <stop offset="45%" stop-color="#67e8f9" stop-opacity="0.88"/>
      <stop offset="100%" stop-color="#a7f3d0" stop-opacity="0"/>
    </linearGradient>
    <filter id="softBlur" x="-40%" y="-40%" width="180%" height="180%">
      <feGaussianBlur stdDeviation="22"/>
    </filter>
    <filter id="glow" x="-60%" y="-60%" width="220%" height="220%">
      <feGaussianBlur stdDeviation="8" result="blur"/>
      <feColorMatrix in="blur" type="matrix" values="0 0 0 0 0.22 0 0 0 0 0.86 0 0 0 0 0.78 0 0 0 0.78 0" result="colored"/>
      <feMerge>
        <feMergeNode in="colored"/>
        <feMergeNode in="SourceGraphic"/>
      </feMerge>
    </filter>
    <filter id="shadow" x="-30%" y="-30%" width="160%" height="180%">
      <feDropShadow dx="0" dy="32" stdDeviation="28" flood-color="#000814" flood-opacity="0.55"/>
    </filter>
    <pattern id="grid" width="48" height="48" patternUnits="userSpaceOnUse">
      <path d="M 48 0 L 0 0 0 48" fill="none" stroke="#8dd7ff" stroke-opacity="0.055" stroke-width="1"/>
    </pattern>
    <clipPath id="screenClip">
      <rect x="646" y="180" width="508" height="300" rx="22"/>
    </clipPath>
  </defs>

  <rect width="1800" height="640" fill="url(#bgGlow)"/>
  <rect width="1800" height="640" fill="url(#grid)"/>
  <ellipse cx="805" cy="452" rx="680" ry="260" fill="url(#deskGlow)"/>
  <ellipse cx="925" cy="547" rx="520" ry="56" fill="#000814" opacity="0.52" filter="url(#softBlur)"/>

  <g opacity="0.72" filter="url(#glow)">
    <path d="M350 390 C510 248 634 194 815 214 C1056 241 1136 124 1367 164" fill="none" stroke="url(#edge)" stroke-width="2"/>
    <path d="M303 292 C482 315 586 366 735 346 C909 323 1054 248 1248 284 C1338 301 1400 328 1498 315" fill="none" stroke="#35d0ba" stroke-opacity="0.32" stroke-width="1.5"/>
    <path d="M477 477 C621 406 754 393 910 424 C1092 460 1247 460 1439 384" fill="none" stroke="#8dd7ff" stroke-opacity="0.28" stroke-width="1.5"/>
  </g>

  <g opacity="0.45">
    <circle cx="352" cy="390" r="5" fill="#6ee7b7"/>
    <circle cx="509" cy="251" r="4" fill="#67e8f9"/>
    <circle cx="814" cy="214" r="6" fill="#a7f3d0"/>
    <circle cx="1136" cy="124" r="4" fill="#67e8f9"/>
    <circle cx="1368" cy="164" r="5" fill="#6ee7b7"/>
    <circle cx="303" cy="292" r="4" fill="#8dd7ff"/>
    <circle cx="735" cy="346" r="5" fill="#34d399"/>
    <circle cx="1248" cy="284" r="4" fill="#8dd7ff"/>
    <circle cx="1498" cy="315" r="5" fill="#67e8f9"/>
  </g>

  <g transform="translate(0 0)" filter="url(#shadow)">
    <path d="M584 502 L1216 502 L1284 556 C1292 563 1287 576 1276 576 L518 576 C507 576 502 563 510 556 Z" fill="#101827"/>
    <path d="M600 506 L1200 506 L1252 548 L548 548 Z" fill="#1f2937"/>
    <path d="M796 531 L1006 531 C1014 531 1019 538 1014 544 L788 544 C783 538 788 531 796 531 Z" fill="#020617" opacity="0.52"/>
    <rect x="616" y="152" width="568" height="364" rx="34" fill="#111827"/>
    <rect x="638" y="174" width="524" height="320" rx="26" fill="#020617"/>
    <rect x="646" y="180" width="508" height="300" rx="22" fill="url(#screen)"/>
    <g clip-path="url(#screenClip)">
      <rect x="646" y="180" width="508" height="300" fill="#07111d"/>
      <circle cx="835" cy="302" r="142" fill="#0ea5e9" opacity="0.11"/>
      <circle cx="949" cy="254" r="108" fill="#22c55e" opacity="0.10"/>
      <path d="M692 390 C752 342 814 333 886 360 C961 387 1026 344 1108 296" fill="none" stroke="#a7f3d0" stroke-opacity="0.46" stroke-width="2"/>
      <path d="M704 294 H1092" stroke="#8dd7ff" stroke-opacity="0.10"/>
      <path d="M704 340 H1080" stroke="#8dd7ff" stroke-opacity="0.10"/>
      <path d="M704 386 H1108" stroke="#8dd7ff" stroke-opacity="0.10"/>
      <path d="M752 230 V438" stroke="#8dd7ff" stroke-opacity="0.08"/>
      <path d="M846 222 V444" stroke="#8dd7ff" stroke-opacity="0.08"/>
      <path d="M940 222 V444" stroke="#8dd7ff" stroke-opacity="0.08"/>
      <path d="M1034 230 V438" stroke="#8dd7ff" stroke-opacity="0.08"/>
      <circle cx="764" cy="360" r="10" fill="#34d399" opacity="0.72"/>
      <circle cx="884" cy="360" r="8" fill="#67e8f9" opacity="0.66"/>
      <circle cx="991" cy="337" r="9" fill="#a7f3d0" opacity="0.72"/>
      <circle cx="1084" cy="310" r="7" fill="#67e8f9" opacity="0.64"/>
      <path d="M900 235 L950 254 L950 305 C950 342 928 372 900 382 C872 372 850 342 850 305 L850 254 Z" fill="#020617" stroke="#a7f3d0" stroke-opacity="0.56" stroke-width="2"/>
      <path d="M879 306 L895 322 L925 284" fill="none" stroke="#6ee7b7" stroke-width="5" stroke-linecap="round" stroke-linejoin="round" opacity="0.78"/>
    </g>
    <rect x="646" y="180" width="508" height="300" rx="22" fill="url(#glass)" stroke="#ffffff" stroke-opacity="0.14"/>
  </g>

  <g opacity="0.56" filter="url(#glow)">
    <circle cx="900" cy="320" r="232" fill="none" stroke="#67e8f9" stroke-opacity="0.15" stroke-width="2"/>
    <circle cx="900" cy="320" r="284" fill="none" stroke="#34d399" stroke-opacity="0.11" stroke-width="2" stroke-dasharray="12 18"/>
    <circle cx="900" cy="320" r="342" fill="none" stroke="#a7f3d0" stroke-opacity="0.08" stroke-width="2" stroke-dasharray="2 18"/>
  </g>

  <g opacity="0.76">
    <g transform="translate(438 164)">
      <rect x="0" y="0" width="88" height="88" rx="24" fill="#0f172a" fill-opacity="0.72" stroke="#8dd7ff" stroke-opacity="0.20"/>
      <circle cx="44" cy="44" r="20" fill="none" stroke="#67e8f9" stroke-opacity="0.70" stroke-width="3"/>
      <path d="M44 24 V44 L58 56" fill="none" stroke="#a7f3d0" stroke-width="4" stroke-linecap="round" stroke-linejoin="round"/>
    </g>
    <g transform="translate(1264 206)">
      <rect x="0" y="0" width="88" height="88" rx="24" fill="#0f172a" fill-opacity="0.72" stroke="#8dd7ff" stroke-opacity="0.20"/>
      <path d="M28 55 H60 C66 55 70 51 70 45 C70 39 66 35 60 35 H55 C53 26 45 20 36 20 C25 20 16 29 16 40 C16 49 21 55 28 55 Z" fill="none" stroke="#a7f3d0" stroke-opacity="0.76" stroke-width="4" stroke-linejoin="round"/>
    </g>
    <g transform="translate(350 392)">
      <rect x="0" y="0" width="88" height="88" rx="24" fill="#0f172a" fill-opacity="0.72" stroke="#8dd7ff" stroke-opacity="0.20"/>
      <path d="M27 59 H61 M33 25 H55 L62 59 H26 Z" fill="none" stroke="#67e8f9" stroke-opacity="0.76" stroke-width="4" stroke-linejoin="round"/>
    </g>
    <g transform="translate(1376 376)">
      <rect x="0" y="0" width="88" height="88" rx="24" fill="#0f172a" fill-opacity="0.72" stroke="#8dd7ff" stroke-opacity="0.20"/>
      <path d="M44 20 C56 20 66 30 66 42 C66 56 55 68 44 68 C33 68 22 56 22 42 C22 30 32 20 44 20 Z" fill="none" stroke="#a7f3d0" stroke-opacity="0.76" stroke-width="4"/>
      <path d="M44 32 V45 L52 52" fill="none" stroke="#67e8f9" stroke-width="4" stroke-linecap="round" stroke-linejoin="round"/>
    </g>
  </g>

  <g opacity="0.22">
    <circle cx="202" cy="118" r="94" fill="#67e8f9" filter="url(#softBlur)"/>
    <circle cx="1576" cy="126" r="118" fill="#34d399" filter="url(#softBlur)"/>
    <circle cx="1564" cy="548" r="102" fill="#8dd7ff" filter="url(#softBlur)"/>
  </g>

  <rect x="0" y="0" width="1800" height="640" fill="none" stroke="#ffffff" stroke-opacity="0.08"/>
</svg>
